<svg width="32" height="32" viewBox="0 0 32 32" fill="none" xmlns="http://www.w3.org/2000/svg">
<path d="M6.40001 7.99999H1.24801C0.65601 7.99999 0.0640101 8.51199 0.14401 9.34399L2.64001 25.328C2.64001 25.328 5.60001 13.552 6.17601 10.72C6.35201 9.87199 7.15201 9.59999 7.74401 9.59999H16C16 9.59999 14.88 6.27199 14.768 5.90399C14.576 5.19999 14.224 4.79999 13.52 4.79999H8.22401C7.64801 4.79999 7.10401 5.16799 6.94401 5.82399C6.80001 6.46399 6.40001 7.99999 6.40001 7.99999ZM14.208 7.99999H7.80801C7.80801 7.99999 8.48001 6.39999 9.20001 6.39999H12.608C13.376 6.39999 14.208 7.99999 14.208 7.99999ZM4.27201 26C3.77601 26.752 3.05601 27.2 2.25601 27.2H27.424C28.288 27.2 28.896 26.704 29.072 25.872C29.776 22.368 31.76 12.368 31.76 12.368C31.872 11.568 31.28 11.2 30.768 11.2H25.6V8.84799C25.6 8.59199 25.184 7.99999 24.544 7.99999H18.528C17.696 7.99999 17.136 8.92799 17.136 8.92799L16 11.2H8.94401C8.43201 11.2 7.93601 11.504 7.84001 12C7.84001 12 5.29601 22.72 5.08801 23.728C4.97601 24.32 4.73601 25.312 4.27201 26ZM24.608 11.2H17.6C17.6 11.2 18.528 9.59999 19.408 9.59999H23.072C24.208 9.59999 24.608 11.2 24.608 11.2Z" fill="white"/>
</svg>
