<svg width="32" height="26" viewBox="0 0 32 26" fill="none" xmlns="http://www.w3.org/2000/svg">
<path d="M4.8 11.375C6.565 11.375 8 9.91758 8 8.125C8 6.33242 6.565 4.875 4.8 4.875C3.035 4.875 1.6 6.33242 1.6 8.125C1.6 9.91758 3.035 11.375 4.8 11.375ZM27.2 11.375C28.965 11.375 30.4 9.91758 30.4 8.125C30.4 6.33242 28.965 4.875 27.2 4.875C25.435 4.875 24 6.33242 24 8.125C24 9.91758 25.435 11.375 27.2 11.375ZM28.8 13H25.6C24.72 13 23.925 13.3605 23.345 13.9445C25.36 15.0668 26.79 17.093 27.1 19.5H30.4C31.285 19.5 32 18.7738 32 17.875V16.25C32 14.4574 30.565 13 28.8 13ZM16 13C19.095 13 21.6 10.4559 21.6 7.3125C21.6 4.16914 19.095 1.625 16 1.625C12.905 1.625 10.4 4.16914 10.4 7.3125C10.4 10.4559 12.905 13 16 13ZM19.84 14.625H19.425C18.385 15.1328 17.23 15.4375 16 15.4375C14.77 15.4375 13.62 15.1328 12.575 14.625H12.16C8.98 14.625 6.4 17.2453 6.4 20.475V21.9375C6.4 23.2832 7.475 24.375 8.8 24.375H23.2C24.525 24.375 25.6 23.2832 25.6 21.9375V20.475C25.6 17.2453 23.02 14.625 19.84 14.625ZM8.655 13.9445C8.075 13.3605 7.28 13 6.4 13H3.2C1.435 13 0 14.4574 0 16.25V17.875C0 18.7738 0.715 19.5 1.6 19.5H4.895C5.21 17.093 6.64 15.0668 8.655 13.9445Z" fill="white"/>
</svg>
