<svg width="32" height="32" viewBox="0 0 32 32" fill="none" xmlns="http://www.w3.org/2000/svg">
<path d="M25.3333 17.3333C26.2667 17.3333 27.16 17.5067 28 17.8V12L20 4H6.66667C5.18667 4 4 5.18667 4 6.66667V25.3333C4 26.0406 4.28095 26.7189 4.78105 27.219C5.28115 27.719 5.95942 28 6.66667 28H17.8C17.5067 27.16 17.3333 26.2667 17.3333 25.3333C17.3333 20.92 20.92 17.3333 25.3333 17.3333ZM18.6667 6L26 13.3333H18.6667V6ZM30.6667 24V26.6667H26.6667V30.6667H24V26.6667H20V24H24V20H26.6667V24H30.6667Z" fill="white"/>
</svg>
