<svg width="28" height="22" viewBox="0 0 28 22" fill="none" xmlns="http://www.w3.org/2000/svg">
<path d="M24.6666 5.33333L14 12L3.33329 5.33333V2.66667L14 9.33333L24.6666 2.66667M24.6666 0H3.33329C1.85329 0 0.666626 1.18667 0.666626 2.66667V18.6667C0.666626 19.3739 0.947577 20.0522 1.44767 20.5523C1.94777 21.0524 2.62605 21.3333 3.33329 21.3333H24.6666C25.3739 21.3333 26.0521 21.0524 26.5522 20.5523C27.0523 20.0522 27.3333 19.3739 27.3333 18.6667V2.66667C27.3333 1.95942 27.0523 1.28115 26.5522 0.781048C26.0521 0.280951 25.3739 0 24.6666 0Z" fill="white"/>
</svg>
