<svg width="64" height="64" viewBox="0 0 64 64" fill="none" xmlns="http://www.w3.org/2000/svg">
<path d="M12.8 16H2.49599C1.31199 16 0.12799 17.024 0.28799 18.688L5.27999 50.656C5.27999 50.656 11.2 27.104 12.352 21.44C12.704 19.744 14.304 19.2 15.488 19.2H32C32 19.2 29.76 12.544 29.536 11.808C29.152 10.4 28.448 9.60001 27.04 9.60001H16.448C15.296 9.60001 14.208 10.336 13.888 11.648C13.6 12.928 12.8 16 12.8 16ZM28.416 16H15.616C15.616 16 16.96 12.8 18.4 12.8H25.216C26.752 12.8 28.416 16 28.416 16ZM8.54399 52C7.55199 53.504 6.11199 54.4 4.51199 54.4H54.848C56.576 54.4 57.792 53.408 58.144 51.744C59.552 44.736 63.52 24.736 63.52 24.736C63.744 23.136 62.56 22.4 61.536 22.4H51.2V17.696C51.2 17.184 50.368 16 49.088 16H37.056C35.392 16 34.272 17.856 34.272 17.856L32 22.4H17.888C16.864 22.4 15.872 23.008 15.68 24C15.68 24 10.592 45.44 10.176 47.456C9.95199 48.64 9.47199 50.624 8.54399 52ZM49.216 22.4H35.2C35.2 22.4 37.056 19.2 38.816 19.2H46.144C48.416 19.2 49.216 22.4 49.216 22.4Z" fill="#E14E1D"/>
</svg>
