<svg width="64" height="52" viewBox="0 0 64 52" fill="none" xmlns="http://www.w3.org/2000/svg">
<path d="M9.6 22.75C13.13 22.75 16 19.8352 16 16.25C16 12.6648 13.13 9.75 9.6 9.75C6.07 9.75 3.2 12.6648 3.2 16.25C3.2 19.8352 6.07 22.75 9.6 22.75ZM54.4 22.75C57.93 22.75 60.8 19.8352 60.8 16.25C60.8 12.6648 57.93 9.75 54.4 9.75C50.87 9.75 48 12.6648 48 16.25C48 19.8352 50.87 22.75 54.4 22.75ZM57.6 26H51.2C49.44 26 47.85 26.7211 46.69 27.8891C50.72 30.1336 53.58 34.1859 54.2 39H60.8C62.57 39 64 37.5477 64 35.75V32.5C64 28.9148 61.13 26 57.6 26ZM32 26C38.19 26 43.2 20.9117 43.2 14.625C43.2 8.33828 38.19 3.25 32 3.25C25.81 3.25 20.8 8.33828 20.8 14.625C20.8 20.9117 25.81 26 32 26ZM39.68 29.25H38.85C36.77 30.2656 34.46 30.875 32 30.875C29.54 30.875 27.24 30.2656 25.15 29.25H24.32C17.96 29.25 12.8 34.4906 12.8 40.95V43.875C12.8 46.5664 14.95 48.75 17.6 48.75H46.4C49.05 48.75 51.2 46.5664 51.2 43.875V40.95C51.2 34.4906 46.04 29.25 39.68 29.25ZM17.31 27.8891C16.15 26.7211 14.56 26 12.8 26H6.4C2.87 26 0 28.9148 0 32.5V35.75C0 37.5477 1.43 39 3.2 39H9.79C10.42 34.1859 13.28 30.1336 17.31 27.8891Z" fill="#1ABCFE"/>
</svg>
