<svg width="28" height="29" viewBox="0 0 28 29" fill="none" xmlns="http://www.w3.org/2000/svg">
<path d="M6.04056 0V0.00615583C4.4805 0.203142 3.1014 1.97601 3.1014 4.24135C3.1014 5.49713 3.54446 6.60518 4.19345 7.37466L4.82995 8.12566L3.85023 8.30418C2.99532 8.46423 2.36505 8.91361 1.84087 9.62768C1.31045 10.3356 0.911077 11.3205 0.630265 12.447C0.118565 14.5154 0.0124805 17.0454 0 19.2492H2.74571L3.4883 29H9.49766L10.1529 19.2492H12.7675C12.7675 17.0208 12.7488 14.46 12.2808 12.3732C12.0312 11.2343 11.6443 10.2556 11.1139 9.54765C10.5772 8.84589 9.91576 8.39652 8.961 8.25494L7.96256 8.10104L8.59282 7.32541C9.21685 6.55593 9.63494 5.46636 9.63494 4.24135C9.63494 1.82827 8.08736 0.00615583 6.36505 0.00615583C6.18409 0.00615583 6.07176 0 6.04056 0ZM26.0655 0.492464C24.9922 0.492464 24.131 1.34012 24.131 2.40076C24.131 3.46141 24.9922 4.30906 26.0655 4.30906C27.1388 4.30906 28 3.46141 28 2.40076C28 1.34012 27.1388 0.492464 26.0655 0.492464ZM18.0156 1.84674V4.80153H11.5881V5.90957H18.0156V15.6357H14.5835V16.7438H18.0156V23.5152H11.5881V24.6232H18.0156V26.5931H23.0577C23.0265 26.4146 23.0078 26.2299 23.0078 26.0391C23.0078 25.8482 23.0265 25.6636 23.0577 25.485H19.1388V16.7438H23.0577C23.0265 16.5653 23.0078 16.3806 23.0078 16.1898C23.0078 15.9989 23.0265 15.8143 23.0577 15.6357H19.1388V2.95479H23.0577C23.0265 2.77504 23.0078 2.58975 23.0078 2.40076C23.0078 2.21178 23.0265 2.02649 23.0577 1.84674H18.0156ZM26.0655 14.2815C24.9922 14.2815 24.131 15.131 24.131 16.1898C24.131 17.2486 24.9922 18.0981 26.0655 18.0981C27.1388 18.0981 28 17.2486 28 16.1898C28 15.131 27.1388 14.2815 26.0655 14.2815ZM26.0655 24.1308C24.9922 24.1308 24.131 24.9803 24.131 26.0391C24.131 27.0979 24.9922 27.9474 26.0655 27.9474C27.1388 27.9474 28 27.0979 28 26.0391C28 24.9803 27.1388 24.1308 26.0655 24.1308Z" fill="white"/>
</svg>
