<svg width="54" height="54" viewBox="0 0 54 54" fill="none" xmlns="http://www.w3.org/2000/svg">
<path d="M42.6667 26.6667C44.5333 26.6667 46.32 27.0133 48 27.6V16L32 0H5.33333C2.37333 0 0 2.37333 0 5.33333V42.6667C0 44.0812 0.561903 45.4377 1.5621 46.4379C2.56229 47.4381 3.91885 48 5.33333 48H27.6C27.0133 46.32 26.6667 44.5333 26.6667 42.6667C26.6667 33.84 33.84 26.6667 42.6667 26.6667ZM29.3333 4L44 18.6667H29.3333V4ZM53.3333 40V45.3333H45.3333V53.3333H40V45.3333H32V40H40V32H45.3333V40H53.3333Z" fill="#F7DF1E"/>
</svg>
